<?xml version="1.0" encoding="utf-8"?>
<!-- Generator: Adobe Illustrator 25.0.0, SVG Export Plug-In . SVG Version: 6.00 Build 0)  -->
<svg version="1.1" id="Capa_1" xmlns="http://www.w3.org/2000/svg" xmlns:xlink="http://www.w3.org/1999/xlink" x="0px" y="0px"
	 viewBox="0 0 462.8 462.8" style="enable-background:new 0 0 462.8 462.8;" xml:space="preserve">
<style type="text/css">
	.st0{fill:#FDFDFD;stroke:#231F20;stroke-miterlimit:10;}
</style>
<g>
	<g>
		<path class="st0" d="M458.2,149.3c-17.6-21-36.1-41.2-55.5-60.7c-8.3-8.4-19.3-4.2-24.1,3.5c-48.4,40.6-96.3,87.1-144.7,127.7
			c-46.3-46.1-98.7-90.4-146.7-134.6c-5.4-5-11.7-5.2-16.9-2.8c-4.9,0.4-9.5,3.4-12.8,7.7c-15.6,20.2-32.1,39.8-49.2,58.7
			c-7.8,4.8-12.1,15.9-3.8,24.4C71,240.7,146,300,205.6,374.2c1.6,2,3.4,3.4,5.3,4.3c5.6,4.2,13.6,5.3,20.3-0.8
			c74.8-69.2,153.9-133.5,227.1-204.5c5-4.8,5.6-10.5,3.7-15.5C461.5,154.8,460.4,152,458.2,149.3z M221.3,344.4
			c-55.1-66.5-122.2-121.4-183.4-182c13.1-14.8,25.7-30,37.9-45.6c47.1,42.2,97.6,85.6,141.9,130.8c2.3,2.4,4.8,3.7,7.4,4.2
			c5.6,3.8,13.3,4.7,19.9-0.8c49.1-41,97.6-88,146.6-129.2c12,12.4,23.6,25.3,34.9,38.4C360,223.8,289.1,282.4,221.3,344.4z"/>
	</g>
</g>
</svg>
